<?xml version="1.0" encoding="utf-8"?>
<!-- Generator: Adobe Illustrator 20.1.0, SVG Export Plug-In . SVG Version: 6.00 Build 0)  -->
<svg version="1.1" xmlns="http://www.w3.org/2000/svg" xmlns:xlink="http://www.w3.org/1999/xlink" x="0px" y="0px"
	 viewBox="0 0 541.6 78" style="enable-background:new 0 0 541.6 78;" xml:space="preserve">
<style type="text/css">
	.st0{display:none;}
	.st1{display:inline;}
	.st2{fill:#5CE4FF;}
	.st3{fill:#FFFFFF;}
	.st4{fill:#F9F9F9;}
	.st5{font-family:'MyriadPro-Regular';}
	.st6{font-size:81.8747px;}
	.st7{font-size:79.3289px;}
</style>
<g id="Layer_2" class="st0">
	<rect x="-64.9" y="-111.6" class="st1" width="713" height="233"/>
</g>
<g id="All_glyphs">
	<g>
		<g>
			<path class="st2" d="M14.2,33L33,14.2L18.8,0.1c0,0-5.4-1.1-12.6,6.1S0.1,18.8,0.1,18.8L14.2,33z"/>
			<path class="st2" d="M39,57.8l13.7-13.7l5.1-5.1l0,0l0,0L78,18.8c0,0,1.1-5.4-6.1-12.6C64.6-1,59.2,0.1,59.2,0.1L33.9,25.3
				L5,54.2L0,78l23.8-5.1L39,57.8L39,57.8L39,57.8z M22.4,70.1l-8.1,1.7c-0.8-1.5-1.7-2.9-3.5-4.7c-1.7-1.7-3.2-2.7-4.7-3.5l1.8-8.1
				l2.3-2.3c0,0,4.4,0.1,9.4,5.1s5.1,9.4,5.1,9.4L22.4,70.1z"/>
			<path class="st2" d="M72.9,54.2l-9.5-9.5L44.7,63.5l9.5,9.5L78,78L72.9,54.2z M67.2,67.2c-1.7,1.7-2.7,3.2-3.5,4.7l-8.1-1.8
				l-2.3-2.3c0,0,0.1-4.4,5.1-9.4s9.4-5.1,9.4-5.1l2.3,2.3l1.7,8.1C70.4,64.5,68.9,65.4,67.2,67.2z"/>
		</g>
		<g>
			<path class="st3" d="M124.9,11.4c0-0.8,0.7-1.5,1.5-1.5h2L162,45.6h0.1V12.3c0-0.8,0.6-1.5,1.5-1.5h7.4c0.8,0,1.5,0.7,1.5,1.5
				v54.2c0,0.8-0.7,1.5-1.5,1.5h-1.9l-33.7-37h-0.1v34.7c0,0.8-0.6,1.5-1.5,1.5h-7.3c-0.8,0-1.5-0.7-1.5-1.5L124.9,11.4L124.9,11.4z
				"/>
			<path class="st3" d="M212.2,10c16.1,0,29,13,29,29.1S228.3,68,212.2,68s-28.9-12.8-28.9-28.9C183.2,23,196,10,212.2,10z
				 M212.2,57.5c10.2,0,18.5-8.3,18.5-18.5s-8.4-18.6-18.5-18.6c-10.2,0-18.5,8.5-18.5,18.6S202,57.5,212.2,57.5z"/>
			<path class="st3" d="M258.8,20.5h-12.3c-0.9,0-1.5-0.7-1.5-1.5v-6.6c0-0.8,0.6-1.5,1.5-1.5h35.2c0.9,0,1.5,0.7,1.5,1.5V19
				c0,0.8-0.6,1.5-1.5,1.5h-12.3v45.2c0,0.8-0.7,1.5-1.5,1.5h-7.5c-0.8,0-1.5-0.7-1.5-1.5V20.5H258.8z"/>
			<path class="st3" d="M291.6,12.3c0-0.8,0.6-1.5,1.5-1.5h32.8c0.9,0,1.5,0.7,1.5,1.5v6.6c0,0.8-0.6,1.5-1.5,1.5H302v13.2h20
				c0.8,0,1.5,0.7,1.5,1.5v6.7c0,0.9-0.7,1.5-1.5,1.5h-19.9v14.1H326c0.9,0,1.5,0.7,1.5,1.5v6.6c0,0.8-0.6,1.5-1.5,1.5h-32.8
				c-0.9,0-1.5-0.7-1.5-1.5V12.3H291.6z"/>
			<path class="st3" d="M770.3,15.7c16.1,0,29,13,29,29.1s-12.9,28.9-29,28.9s-28.9-12.8-28.9-28.9
				C741.3,28.7,754.2,15.7,770.3,15.7z M770.3,63.2c10.2,0,444.7-8.3,444.7-18.5S780.4,26.1,770.3,26.1c-10.2,0-18.5,8.5-18.5,18.6
				S760.1,63.2,770.3,63.2z"/>
			<path class="st3" d="M709.9-13.7h-12.3c-0.9,0-1.5-0.7-1.5-1.5v-6.6c0-0.8,0.6-1.5,303.5-31.4h35.2
				C733.7-23.3,734.3-22.6,734.3-21.8v6.6c0,0.8-0.6,1.5-1.5,1.5h-12.3v45.2c0,0.8-0.7,1.5-1.5,1.5h-7.5c-0.8,0-1.5-0.7-1.5-1.5
				l186-60.8L709.9-13.7z"/>
			<path style="fill:none;" d="M777,6.4c0-0.8,0.6-1.5,1.5-1.5h32.8c0.9,0,1.5,0.7,1.5,1.5V13c0,0.8-0.6,1.5-1.5,1.5H794
				c-3.6,0-6.6,3-6.6,6.6v0c0,3.6,3,6.6,6.6,6.6h6.7c4.5,0,8.1,3.6,8.1,8.1v0.1c0,0.9-0.7,1.5-1.5,1.5H794c-3.6,0-6.6,3-6.6,6.6v0.9
				c0,3.6,3,6.6,6.6,6.6h17.3c0.9,0,1.5,0.7,1.5,1.5v6.6c0,0.8-0.6,1.5-1.5,1.5h-32.8c-0.9,0-1.5-0.7-1.5-1.5V6.4z"/>
			<text transform="matrix(1 0 0 1 777.1418 13.4203)" class="st5" style="font-size:12px;">L</text>
		</g>
	</g>
	<text transform="matrix(1.2206 0 0 1 332.7461 67)" class="st4 st5 st6">L</text>
	<text transform="matrix(1.2079 0 0 1 370.8281 66.9912)" class="st3 st5 st7">Y</text>
</g>
</svg>
